<svg width="16" height="16" viewBox="0 0 16 16" fill="none" xmlns="http://www.w3.org/2000/svg">
<path d="M15.0475 10.3023L11.7975 8.30226C11.4945 8.11598 11.1474 8.01387 10.7918 8.00644C10.4362 7.99901 10.0851 8.08653 9.77458 8.25999C9.46409 8.43345 9.20547 8.68656 9.02537 8.99325C8.84528 9.29994 8.75022 9.6491 8.75 10.0048V14.0048C8.75022 14.3604 8.84528 14.7096 9.02537 15.0163C9.20547 15.323 9.46409 15.5761 9.77458 15.7495C10.0851 15.923 10.4362 16.0105 10.7918 16.0031C11.1474 15.9956 11.4945 15.8935 11.7975 15.7073L15.0475 13.7073C15.3386 13.5283 15.579 13.2777 15.7457 12.9795C15.9125 12.6812 16 12.3452 16 12.0035C16 11.6618 15.9125 11.3258 15.7457 11.0275C15.579 10.7293 15.3386 10.4787 15.0475 10.2998V10.3023ZM10.75 14.0048V10.0048L14 12.0048L10.75 14.0048Z" fill="black"/>
<path d="M3 16.0048H6.25C6.51521 16.0048 6.76957 15.8994 6.9571 15.7119C7.14464 15.5243 7.25 15.27 7.25 15.0048C7.25 14.7395 7.14464 14.4852 6.9571 14.2976C6.76957 14.1101 6.51521 14.0048 6.25 14.0048H3C2.73478 14.0048 2.48043 13.8994 2.29289 13.7119C2.10536 13.5243 2 13.27 2 13.0048V5.25476C2 4.98955 2.10536 4.73519 2.29289 4.54766C2.48043 4.36012 2.73478 4.25476 3 4.25476H12C12.2652 4.25476 12.5196 4.36012 12.7071 4.54766C12.8946 4.73519 13 4.98955 13 5.25476V6.50476C13 6.76998 13.1053 7.02433 13.2929 7.21187C13.4804 7.3994 13.7348 7.50476 14 7.50476C14.2652 7.50476 14.5196 7.3994 14.7071 7.21187C14.8946 7.02433 15 6.76998 15 6.50476V5.25476C14.9993 4.54632 14.7479 3.861 14.2903 3.32015C13.8327 2.7793 13.1985 2.41784 12.5 2.29976V1.04977C12.5057 0.794747 12.4165 0.546698 12.2498 0.353647C12.083 0.160596 11.8506 0.0362782 11.5975 0.00476567C11.4582 -0.00888067 11.3176 0.00685893 11.1848 0.0509664C11.052 0.0950739 10.9299 0.166567 10.8265 0.260822C10.723 0.355078 10.6405 0.469996 10.5843 0.598145C10.528 0.726294 10.4993 0.86482 10.5 1.00477V2.25476H8.5V1.04727C8.50504 0.792673 8.41559 0.545238 8.24893 0.352717C8.08226 0.160196 7.85018 0.0362369 7.5975 0.00476567C7.45822 -0.00888067 7.31762 0.00685893 7.18481 0.0509664C7.052 0.0950739 6.92992 0.166567 6.82647 0.260822C6.72303 0.355078 6.64052 0.469996 6.58428 0.598145C6.52804 0.726294 6.49933 0.86482 6.5 1.00477V2.25476H4.5V1.04727C4.50504 0.792673 4.4156 0.545238 4.24893 0.352717C4.08226 0.160196 3.85019 0.0362369 3.5975 0.00476567C3.45822 -0.00888067 3.31763 0.00685893 3.18481 0.0509664C3.052 0.0950739 2.92992 0.166567 2.82648 0.260822C2.72303 0.355078 2.64052 0.469996 2.58428 0.598145C2.52805 0.726294 2.49933 0.86482 2.5 1.00477V2.29976C1.80147 2.41784 1.16726 2.7793 0.709692 3.32015C0.252123 3.861 0.00071792 4.54632 0 5.25476V13.0048C0 13.8004 0.31607 14.5635 0.878679 15.1261C1.44129 15.6887 2.20435 16.0048 3 16.0048Z" fill="black"/>
</svg>
