<svg width="16" height="11" viewBox="0 0 16 11" fill="none" xmlns="http://www.w3.org/2000/svg">
<path d="M12.4651 0H3.53488C1.58512 0 0 1.5975 0 3.5625C0 5.5275 1.58512 7.125 3.53488 7.125H5.95349V9H4.27907C3.97395 9 3.72093 9.255 3.72093 9.5625C3.72093 9.87 3.97395 10.125 4.27907 10.125H11.7209C12.026 10.125 12.2791 9.87 12.2791 9.5625C12.2791 9.255 12.026 9 11.7209 9H10.0465V7.125H12.4651C14.4149 7.125 16 5.5275 16 3.5625C16 1.5975 14.4149 0 12.4651 0ZM8.93023 9H7.06977V7.125H8.93023V9ZM12.4651 6H3.53488C2.20279 6 1.11628 4.905 1.11628 3.5625C1.11628 2.22 2.20279 1.125 3.53488 1.125H12.4651C13.7972 1.125 14.8837 2.22 14.8837 3.5625C14.8837 4.905 13.7972 6 12.4651 6ZM8.93023 3.5625C8.93023 4.08 8.51349 4.5 8 4.5C7.48651 4.5 7.06977 4.08 7.06977 3.5625C7.06977 3.045 7.48651 2.625 8 2.625C8.51349 2.625 8.93023 3.045 8.93023 3.5625Z" fill="black"/>
</svg>
